<?xml version="1.0" encoding="UTF-8"?> <svg xmlns="http://www.w3.org/2000/svg" id="Layer_1" data-name="Layer 1" viewBox="0 0 785.51 253.39"><defs><style>.cls-1{fill:#fff;}</style></defs><title>SimplyCDB-Logo-White</title><path class="cls-1" d="M198.22,6.21h0s-5.8.52-9.61,1.35h0c-.87.17-2.43.51-4.46,1-.49.13-5.52,1.61-6.35,1.89h0a88.79,88.79,0,0,0-22.07,10.71c-.69.47-4.62,3.51-7,5.47h0c-.74.61-3.18,3-3.58,3.37h0c-.77.78-1.54,1.59-2.28,2.44-12.45,14.48-16.35,33-17.57,45.22a51.61,51.61,0,0,0-4.59-12.45c-.25-.47-1.76-2.9-2.76-4.42h0c-.33-.5-1.55-2.07-1.75-2.31h0c-.4-.51-.83-1-1.28-1.48-9.79-10.42-24.3-13.16-30.13-13.91h0L82.85,43l-.52,0h-.1l-.37,0H81L81,44l0,.23,0,.22,0,0c0,.66,0,2.37.32,4.9h0c0,.51.15,1.47.33,2.62l0,0,.22,1.21c.17.86.32,1.75.53,2.69C83.78,62.52,86.76,70.9,93,77.55h0l1.28,1.29h0c.28.26,2.61,2.35,3.73,3.14s3,2,3.15,2.11a47.33,47.33,0,0,0,5.41,2.81l.07,0h0l4.16,1.61v0l.09,0c.34.12,2.62.82,3.2,1h0c.38.1,3.57.91,4.57,1.1h0c.27.06,3.51.62,4.43.74l2,.24.7.08.45,0h0l.44.06v-.12c1-.12,4-.5,8.41-1.44h0a63.6,63.6,0,0,0,6.36-1.58h0c1.43-.41,2.92-.86,4.48-1.37,11.15-3.68,24.82-10.26,35-22,.69-.79,1.34-1.6,2-2.42.37-.48,3.54-4.89,4.65-6.88,1.2-2.15,2.88-5.48,3-5.74a80.3,80.3,0,0,0,3.79-9.68h0c.18-.52,1.93-7,2.1-7.69h0c.13-.59.93-4.61,1.11-5.62h0c.11-.62.91-6.29,1.06-8h0v0h0c0-.53.4-6.09.44-7.62s.05-4.66.05-4.66V6.13ZM139.33,86.62c-1.43.38-2.76.71-4,1-.09-1.25-.19-3.25-.19-6,0-.61,0-1.25,0-1.91.19-11,2.24-29.47,12.08-43.73l.22-.29c-.12.21-.26.4-.37.62-6.5,11.87-8.14,26-8.35,36.39h0c0,.7,0,1.41,0,2.1A106.82,106.82,0,0,0,139.33,86.62Zm-12.05,1.2c0-.47,0-1,0-1.6.16-9.8,2.29-34.45,17.48-52,1-1.13,2-2.15,3.05-3.18-.94,1.14-1.88,2.27-2.74,3.52-10.34,15-12.34,33.93-12.55,45.14,0,.77,0,1.51,0,2.21,0,2.94.13,5.06.22,6.27-.45.09-.9.19-1.28.25-1.75.31-3.13.53-4.07.65h-.09C127.29,88.71,127.28,88.35,127.28,87.82Zm29.17-9.13-.08.06c-.48.38-.9.67-1.34,1a120.66,120.66,0,0,1-2.47-23.31v0h0c0-.53,0-1,0-1.55a64.81,64.81,0,0,1,1.57-13.67,40.77,40.77,0,0,1,9.63-18.66,36.93,36.93,0,0,1,3.57-3.37c.49-.37.93-.67,1.37-1a119.65,119.65,0,0,1,2.47,23.31c0,.55,0,1.08,0,1.61h0a66.22,66.22,0,0,1-1.56,13.67A40.86,40.86,0,0,1,160,75.4,34.19,34.19,0,0,1,156.45,78.69ZM149.81,60c0-.83.13-1.7.18-2.55a123.68,123.68,0,0,0,2.69,23.76l-1.15.65a121.36,121.36,0,0,1-1.74-20.08C149.79,61.22,149.8,60.63,149.81,60Zm-8.47,12.75c.16-9.23,1.57-21.37,6.44-31.94A81.32,81.32,0,0,0,143.54,66h0c0,.74,0,1.48,0,2.19a113.85,113.85,0,0,0,1.2,16.68c-1,.36-1.94.68-2.85.94a104,104,0,0,1-.55-11C141.32,74.15,141.33,73.48,141.34,72.78Zm4.79-6.69a88.66,88.66,0,0,1,2-17.05,88.39,88.39,0,0,0-.89,11c0,.62,0,1.22,0,1.83a121,121,0,0,0,1.94,21.29c-.67.31-1.3.58-1.91.83a116.28,116.28,0,0,1-1.1-16C146.12,67.31,146.12,66.7,146.13,66.09Zm50.33-55.68v1.24h0c-.17,9.81-2.3,34.45-17.48,52C178,64.76,177,65.75,176,66.74c.89-1.1,1.81-2.18,2.64-3.39C189,48.33,191,29.4,191.21,18.16c0-.7,0-1.37,0-2,0-3-.12-5.18-.22-6.43l1.29-.24h0c1.74-.31,3.14-.53,4.08-.66h.07C196.46,9.25,196.46,9.75,196.46,10.41Zm-12,.84c1.41-.37,2.77-.69,4-1,.09,1.25.19,3.28.19,6,0,.59,0,1.2,0,1.85-.19,11-2.25,29.48-12.08,43.73-.05.09-.12.16-.18.25.11-.2.24-.37.35-.58,6.48-11.87,8.12-26,8.33-36.4,0-.72,0-1.42,0-2.1A106.65,106.65,0,0,0,184.42,11.25Zm-2,13.85c-.16,9.26-1.59,21.46-6.48,32.07a80,80,0,0,0,4.28-25.35c0-.74,0-1.47,0-2.2A115.75,115.75,0,0,0,179,13c1-.36,1.95-.68,2.84-1a99.53,99.53,0,0,1,.57,11C182.44,23.71,182.43,24.39,182.41,25.1Zm-4.79,6.69a88.21,88.21,0,0,1-1.87,16.48,84.6,84.6,0,0,0,.79-10.39c0-.66,0-1.31,0-2a118.05,118.05,0,0,0-1.94-21.16c.68-.31,1.32-.58,1.93-.83a117.11,117.11,0,0,1,1.1,15.94C177.64,30.5,177.63,31.14,177.62,31.79Zm-3.69,6h0c0,.83-.14,1.69-.18,2.53a123.91,123.91,0,0,0-2.68-23.74c.39-.23.76-.43,1.13-.63A118.81,118.81,0,0,1,174,35.9C174,36.54,173.94,37.18,173.93,37.83Zm-50.54,42c.08.35.15.68.22,1a62.92,62.92,0,0,1-7.13-.49,56,56,0,0,1-9.11-2c1.8.41,3.58.74,5.27,1a70.53,70.53,0,0,0,8.6.54C122.22,79.84,122.88,79.81,123.39,79.79Zm-3.26,4.52a53.59,53.59,0,0,1-18.67-5.71,54.51,54.51,0,0,0,14.76,3.9A63.13,63.13,0,0,0,124,83c.09.58.16,1.13.23,1.66C123.32,84.63,122,84.54,120.13,84.31ZM121.82,75Zm.83,2.16.14.47-1.58,0a68.73,68.73,0,0,1-8.2-.5c1.74.12,3.38.19,4.8.19C120.05,77.32,121.7,77.21,122.65,77.14Zm-35.32-15-.21-.37c1.39-.13,3.58-.28,6.33-.28a60.86,60.86,0,0,1,7.61.44,38.2,38.2,0,0,1,7.73,1.73,23.42,23.42,0,0,1,10.06,6.63,23,23,0,0,1,1.69,2.24h0l.2.36c-1.39.11-3.57.26-6.33.26a60.81,60.81,0,0,1-7.62-.44A37.54,37.54,0,0,1,99.06,71a23.21,23.21,0,0,1-10-6.62h0A18.3,18.3,0,0,1,87.33,62.12ZM86,59.63v0l.31,0Zm-.84-2.17L85.06,57l1.53,0a67.75,67.75,0,0,1,8.06.48c-1.67-.11-3.25-.17-4.62-.17C87.79,57.29,86.13,57.39,85.19,57.46Zm-.73-2.66c-.08-.34-.15-.67-.23-1a61.32,61.32,0,0,1,7.12.51,54.13,54.13,0,0,1,9.14,1.95c-1.81-.41-3.6-.74-5.28-1a68.17,68.17,0,0,0-8.58-.54C85.63,54.76,85,54.78,84.46,54.8ZM88,48.1c-2.12-.27-3.69-.37-4.65-.4l0-.45h0c-.06-.85-.09-1.51-.11-2l1.25.14c5,.61,16.7,2.92,25.64,10.31C102.54,50.66,93.62,48.81,88,48.1Zm-.28,2.19A53.54,53.54,0,0,1,106.38,56a54.32,54.32,0,0,0-14.75-3.91,64.1,64.1,0,0,0-7.8-.53c-.09-.58-.16-1.12-.22-1.65C84.53,50,85.87,50.05,87.72,50.29Zm10,28.64c7.58,5,16.5,6.86,22.14,7.57,2.1.27,3.67.37,4.62.41l0,.46h0c.07.82.09,1.48.11,2l-1.24-.12,0,.38,0-.38C118.37,88.63,106.68,86.34,97.72,78.93Z"></path><path class="cls-1" d="M9.88,171.26c8.69,10.63,21.87,15.91,38.89,16.05l.78,0A59.93,59.93,0,0,0,91.1,171.16c12-10.9,18.13-24.57,18.09-40.44,0-11.16-3.81-21.73-11.29-31.56-5.69-7.51-14.07-15.13-25.17-23l0,0,0,0L45,58.16h0C29.16,47.68,21.79,38.44,22,32a18.75,18.75,0,0,1,1.56-7c3-7.19,12-11.35,28.42-11.37,10,0,18.43,1.52,25.39,4.46,9.1,3.9,14,9.57,15.52,17.41l.08.37,1.4,2.25.59,1H96l3.6-2.63a15.3,15.3,0,0,0,1.08-5l.08-1.89a24.64,24.64,0,0,0-6.63-16.55C87.2,5.08,76.08.92,61.27.11L57.21,0A65.58,65.58,0,0,0,33.79,4.11C24.37,7.8,17.55,13.39,13.57,20.84c-2.86,5.36-4.37,10.35-4.37,15,.07,11.7,9.24,22.75,26.37,33.72,19.21,12.27,32.09,21.33,38.52,27,13.35,11.76,19.79,23.2,19.93,34.16v.64c0,11.4-4,21.54-12.11,30.77C73,172,62.43,176.9,49.69,177.25h-.53c-10,0-18-3.82-24.51-11.69h0a37.18,37.18,0,0,1-9-25l0-1.4c.33-11.36,3.29-20.1,8.73-26.45l.16-.2.85-1.67,1-2-4.77-1.77-.48-.18-.48.06c-6.13.74-11.17,4.86-15,11.57A46.69,46.69,0,0,0,0,142C0,153.3,3.29,163.13,9.88,171.26Z"></path><path class="cls-1" d="M441.24,140.63c-.1-.39-2-4.69-2-6.76a80.24,80.24,0,0,0-8.57,6.23c0-1.23,0-2.71,0-3.72,0-11.3.42-8.59.43-16l.05-1c-.23-6.19-6-10.36-10.61-10.51l-3.9,1.76-.06.09-.66,1.12-.26.45,0,.5v.3c0,4-3.55,15.59-8.17,25.79a89.93,89.93,0,0,1-7.29,13.53c-2.35,3.58-4.88,5.55-5.67,5.45h-.18c-.61,0-1.66-.54-2.84-2.3-3.54-5.21-6.25-18.41-6.19-30.24A56.35,56.35,0,0,1,387,111v0l.29-2.09a7.46,7.46,0,0,0-3.57-6.24,11.79,11.79,0,0,0-6.23-1.9l-2.84.58-1.9,2.4-.06,0s0,.06,0,.08a91,91,0,0,0-2,18.84c0,13.57,3.11,26,8.56,34.14-6.77,9.8-14.36,17.06-20,16.87h-.48c-4.58-.23-8.9-2.1-12.47-7.93s-6.07-15.87-6.07-31.92c0-2.83.08-5.86.24-9.06,7.77-12.51,27.47-41.85,34.58-62.46,3.69-10.78,5.3-19.6,5.3-26.63,0-6.3-1.3-11.17-3.69-14.58a11.89,11.89,0,0,0-9.95-5.22c-11.91.21-26.5,14.52-34.35,40.9a193.84,193.84,0,0,0-7.47,54.47c0,6,.24,11,.37,14.54a125.81,125.81,0,0,0,1.54,14.23c-2.27.73-4.74,1.59-7.47,2.61,0-.71.06-1.4.06-2.11,0-8.3-1.5-16.8-4.44-23.44s-7.43-11.59-13.74-11.64c-4.16,0-8.5,2.23-13.07,6.85l0,0v0a57.23,57.23,0,0,0-7.37,10.59c0-.86.06-1.78.06-2.63,0-6.19-.26-12.12-.26-18.63,0-3.92.11-8.09.41-12.64v-.12c-.15-2.43-1.86-3.76-3.55-4.9A11.54,11.54,0,0,0,271.85,82l-2.15.62-1.12,2.25h-.05l-3.69,64.33a97.42,97.42,0,0,1-10.57,12.88c-3.31,3.27-6.32,4.93-7.91,4.86h-.07c-1.08-.12-2-.66-2.94-4.14S242,153.7,242,145.19q0-4.32.14-9.6l0-2.15a62.17,62.17,0,0,0-2.75-19c-1.8-5.15-4.29-9.37-8.77-9.58l-.4,0v0c-5.16.26-8.93,5-12.45,11a113.56,113.56,0,0,0-7,14.38c0-2.11.07-4.18.07-6.1,0-3.29-.05-6.3-.14-9.11h0c-.29-7.53-1.14-13.07-2.47-17s-3.35-6.4-6.53-6.47c-2.82.07-5.07,2-7.37,5-6,7.89-11.92,24-16,37.31v0c-1.87,6.61-3.7,13-5.26,18.29.43-7.07,1.17-15.14,1.3-19.87v-.05c0-3.33.33-9,.33-14a41.83,41.83,0,0,0-.53-7.7l0-.07-.06-.14a.92.92,0,0,0,0-.16h0l-.62-1.73c-1.18-1.74-3-4.51-6.37-4.78-1.85,0-3.47,1.45-4.22,3.49l-.08.19,0,.2a219.38,219.38,0,0,0-3.21,25.9v0c-.12,2.94-.16,5.95-.16,8.92,0,1.57,0,3.15,0,4.7a126.62,126.62,0,0,1-10.22,15.12c-3.39,4.24-6.81,6.85-8.55,6.94h0l-.68-.57c-1.3-1.78-2.06-8.11-2-15.65,0-12.41,1.44-28.61,1.44-38.91,0-1.91-.06-3.63-.18-5.1A11,11,0,0,0,128.6,98.88l-2.77.67-1.55,2.6h0a292,292,0,0,0-1.68,30c0,11.38.88,22.23,3.34,30.44s6.73,14.2,13.93,14.25h.45v0c3.87-.09,7.41-2.78,11.15-6.73a96.61,96.61,0,0,0,8.68-11.46,67.28,67.28,0,0,0,1.54,10.15,16.94,16.94,0,0,0,2.08,5,4.83,4.83,0,0,0,3.94,2.43l4-1.93,0-.05h0c2.29-2.4,4-7.52,6.31-14.45s4.58-15.32,7.12-23.48v0c1.7-5.72,5.74-19.7,10.49-28.34l1.44-2.2a19.74,19.74,0,0,1,.17,3.2c0,5.45-.9,13.74-1.12,18.91C196,130,196,132.08,196,134c0,9.91,1,15.78,2.45,19.39s3.72,5.19,5.83,5.14l1.65-.29h0l0,0c1.95-1,2.4-2.63,3.66-5,3.29-7,7.67-20.5,9.62-24.54l0-.07,0-.09a63.09,63.09,0,0,1,6-11.71l0-.07,1.73-2.24,0,0,.64,2.32a45.71,45.71,0,0,1,.29,5.7c0,5.88-.64,12.11-.64,13.07h0c.12,9.8,1.16,19.46,3.62,26.87s6.49,13,13.06,13c5.45-.09,13.8-7.28,21.1-15.6-.74,10.78-2.34,38.26-2.82,45.23a5.45,5.45,0,0,0,4.32,6c8,2,9.56-1.5,9.56-1.5,3.62-27,3-59.7,3.49-68.14,4.82-12.7,8.76-20,14.06-24.53l0,0c1.69-1.51,3-2,3.78-1.94l2.73,2c3,4.37,4.26,15.83,4.2,24.46a62.77,62.77,0,0,1-.56,9.21c-17.14,9.27-23,17.76-23.11,24.35a8.26,8.26,0,0,0,3.84,7.2,12.74,12.74,0,0,0,6.61,1.69c9.87,0,22.94-9.15,27.11-32.58a79.65,79.65,0,0,1,9.83-4c4.75,20.87,15.28,33.87,30,33.94h.58c8.39-.37,16.44-7.66,24.83-19.22,2.9,2.5,6.2,4.28,10,4.28l.36,0c2.72-.12,5-1.85,7.34-4.29,5.35-5.68,11-16.07,15.17-26.46V137c0,3.8,0,8.56.43,16-14,14.38-25.07,32.06-34.45,52.43-3.87,8.5-5.55,16.12-5.57,22.71,0,7.77,2.37,14.12,6.25,18.52a19.7,19.7,0,0,0,14.9,6.8c13.76-.06,28.62-13.72,31.67-43.69,1.32-13.16,1.78-27.06,1.78-40.37,0-7-.13-13.9-.35-20.4A70.05,70.05,0,0,1,441.24,140.63Zm-95-82.19c2.65-11.69,6.64-20.75,10.8-26.8s8.5-8.93,11-8.83c1.42,0,2.45.57,3.52,2.4s1.77,4.91,1.75,9.32c0,5.63-1.15,13.35-4,23.23C365.89,70.05,351.94,94,341,111.35,342.32,92.49,343.05,72.34,346.23,58.44ZM294.78,172.17c-2.51,3.28-4.86,4.36-5.66,4.29l-.41-.13-.11-.11-.19-.82c-.15-2.11,3.22-7.78,12-14.23C298.55,165.89,296.63,169.8,294.78,172.17Zm122.34,31.89c-.67,28.42-13.1,40-21.69,39.88-5.85,0-11-4.89-11.1-15.49,0-5.34,1.42-12.06,5-20C395.64,194.31,407,175.8,417.24,163c.11,4.06.17,8.73.17,14.38C417.41,185.38,417.3,194.62,417.12,204.06Z"></path><polygon class="cls-1" points="210.87 223.74 208.9 223.74 208.9 241.37 209.42 241.37 221.63 241.37 221.63 239.4 210.87 239.4 210.87 223.74"></polygon><polygon class="cls-1" points="237.86 223.74 235.89 223.74 235.89 241.37 236.41 241.37 248.61 241.37 248.61 239.4 237.86 239.4 237.86 223.74"></polygon><polygon class="cls-1" points="275.4 237.79 264.58 223.74 263.39 223.74 262.87 223.74 262.87 241.37 264.85 241.37 264.85 227.33 275.67 241.37 275.92 241.37 276.86 241.37 277.38 241.37 277.38 223.74 275.4 223.74 275.4 237.79"></polygon><polygon class="cls-1" points="294.58 224.26 294.58 241.37 307.07 241.37 307.07 239.4 296.55 239.4 296.55 233.54 306.37 233.54 306.37 231.57 296.55 231.57 296.55 225.71 307.07 225.71 307.07 223.74 294.58 223.74 294.58 224.26"></polygon><path class="cls-1" d="M112.45,223.74h-7.81v17.63h2v-6h5.84a5.84,5.84,0,1,0,0-11.67Zm0,9.7h-5.84v-7.73h5.84a3.87,3.87,0,1,1,0,7.73Z"></path><polygon class="cls-1" points="26.09 231.57 15.53 231.57 15.53 223.74 13.56 223.74 13.56 241.37 15.53 241.37 15.53 233.54 26.09 233.54 26.09 241.37 26.61 241.37 27.54 241.37 28.06 241.37 28.06 223.74 26.09 223.74 26.09 231.57"></polygon><polygon class="cls-1" points="44.26 224.26 44.26 241.37 56.76 241.37 56.76 239.4 46.24 239.4 46.24 233.54 56.06 233.54 56.06 231.57 46.24 231.57 46.24 225.71 56.76 225.71 56.76 223.74 44.26 223.74 44.26 224.26"></polygon><polygon class="cls-1" points="180.23 224.26 180.23 241.37 192.73 241.37 192.73 239.4 182.21 239.4 182.21 233.54 192.03 233.54 192.03 231.57 182.21 231.57 182.21 225.71 192.73 225.71 192.73 223.74 180.23 223.74 180.23 224.26"></polygon><polygon class="cls-1" points="158.89 237.37 154.84 223.74 153.08 223.74 149.03 237.37 144.99 223.74 142.93 223.74 148.15 241.37 148.53 241.37 149.51 241.37 149.9 241.37 153.96 227.74 158.01 241.37 159.77 241.37 164.98 223.74 162.92 223.74 158.89 237.37"></polygon><polygon class="cls-1" points="80.7 238.6 73.71 223.74 72.45 223.74 71.93 223.74 71.93 241.37 73.9 241.37 73.9 228.77 79.86 241.37 80.19 241.37 81.22 241.37 81.55 241.37 87.5 228.77 87.5 241.37 89.47 241.37 89.47 223.74 87.69 223.74 80.7 238.6"></polygon><path class="cls-1" d="M331.41,232.33a14.65,14.65,0,0,0-3.73-1,9.14,9.14,0,0,1-3.32-1,3.17,3.17,0,0,1-.94-.86,1.88,1.88,0,0,1-.32-1.08,2.52,2.52,0,0,1,1.24-2.13,6,6,0,0,1,3.26-.86,5.69,5.69,0,0,1,3.26.93,2.58,2.58,0,0,1,1.25,2.06v.51h2v-.51a4.46,4.46,0,0,0-1.95-3.56,7.61,7.61,0,0,0-4.53-1.41,7.78,7.78,0,0,0-4.52,1.31,4.48,4.48,0,0,0-2,3.66,3.89,3.89,0,0,0,.55,2,5.32,5.32,0,0,0,2.39,2,13.7,13.7,0,0,0,3.46,1,10.69,10.69,0,0,1,3.7,1.15,3.17,3.17,0,0,1,1,.93,2,2,0,0,1,.35,1.17,2.75,2.75,0,0,1-1.38,2.3,6.49,6.49,0,0,1-3.6.94,6.29,6.29,0,0,1-3.59-1,2.77,2.77,0,0,1-1.38-2.23V236h-2v.52a4.69,4.69,0,0,0,2.1,3.74,8.19,8.19,0,0,0,4.85,1.48,8.41,8.41,0,0,0,4.85-1.39,4.64,4.64,0,0,0,2.1-3.83,4,4,0,0,0-.58-2.12A5.55,5.55,0,0,0,331.41,232.33Z"></path><path class="cls-1" d="M358.94,232.33a14.65,14.65,0,0,0-3.73-1,9,9,0,0,1-3.32-1,3,3,0,0,1-.94-.86,1.89,1.89,0,0,1-.33-1.08,2.54,2.54,0,0,1,1.24-2.13,6,6,0,0,1,3.27-.86,5.74,5.74,0,0,1,3.26.93,2.54,2.54,0,0,1,1.24,2.06v.51h2v-.51a4.47,4.47,0,0,0-2-3.56,7.58,7.58,0,0,0-4.52-1.41,7.78,7.78,0,0,0-4.52,1.31,4.43,4.43,0,0,0-2,3.66,3.88,3.88,0,0,0,.54,2,5.35,5.35,0,0,0,2.4,2,13.58,13.58,0,0,0,3.46,1,10.56,10.56,0,0,1,3.69,1.15,3.32,3.32,0,0,1,1,.93,2.07,2.07,0,0,1,.34,1.17,2.74,2.74,0,0,1-1.37,2.3,6.54,6.54,0,0,1-3.6.94,6.33,6.33,0,0,1-3.6-1,2.79,2.79,0,0,1-1.38-2.23V236h-2v.52a4.68,4.68,0,0,0,2.09,3.74,8.24,8.24,0,0,0,4.86,1.48,8.38,8.38,0,0,0,4.84-1.39,4.63,4.63,0,0,0,2.11-3.83,4,4,0,0,0-.59-2.12A5.57,5.57,0,0,0,358.94,232.33Z"></path><path class="cls-1" d="M671.52,223.74H670l-7.65,17.63h2.16l2.2-5.09h8.45l2.22,5.09h2.17l-7.66-17.63Zm2.77,10.56h-6.74l3.37-7.76Z"></path><path class="cls-1" d="M643.11,232.33a14.43,14.43,0,0,0-3.73-1,9.14,9.14,0,0,1-3.32-1,3.17,3.17,0,0,1-.94-.86,1.88,1.88,0,0,1-.32-1.08A2.52,2.52,0,0,1,636,226.2a6,6,0,0,1,3.26-.86,5.69,5.69,0,0,1,3.26.93,2.56,2.56,0,0,1,1.25,2.06v.51h2v-.51a4.47,4.47,0,0,0-2-3.56,7.58,7.58,0,0,0-4.53-1.41,7.73,7.73,0,0,0-4.51,1.31,4.46,4.46,0,0,0-2,3.66,3.89,3.89,0,0,0,.55,2,5.32,5.32,0,0,0,2.39,2,13.82,13.82,0,0,0,3.46,1,10.55,10.55,0,0,1,3.7,1.15,3.17,3.17,0,0,1,1,.93,2,2,0,0,1,.35,1.17,2.73,2.73,0,0,1-1.38,2.3,6.49,6.49,0,0,1-3.6.94,6.29,6.29,0,0,1-3.59-1,2.79,2.79,0,0,1-1.38-2.23V236h-2v.52a4.68,4.68,0,0,0,2.09,3.74,8.23,8.23,0,0,0,4.85,1.48,8.41,8.41,0,0,0,4.85-1.39,4.62,4.62,0,0,0,2.1-3.83,3.94,3.94,0,0,0-.58-2.12A5.55,5.55,0,0,0,643.11,232.33Z"></path><polygon class="cls-1" points="739.21 223.74 733.07 231.9 726.92 223.74 724.45 223.74 732.08 233.85 732.08 241.37 732.6 241.37 733.53 241.37 734.05 241.37 734.05 233.85 741.68 223.74 739.21 223.74"></polygon><polygon class="cls-1" points="612.72 237.79 601.9 223.74 600.71 223.74 600.19 223.74 600.19 241.37 602.17 241.37 602.17 227.33 612.99 241.37 613.24 241.37 614.18 241.37 614.7 241.37 614.7 223.74 612.72 223.74 612.72 237.79"></polygon><path class="cls-1" d="M709.82,229.59a5.84,5.84,0,0,0-5.85-5.85h-7.82v17.63h2v-6h5.49l4,6H710l-4.25-6.26A5.78,5.78,0,0,0,709.82,229.59Zm-2,0a3.84,3.84,0,0,1-3.87,3.85h-5.84v-7.73H704A3.87,3.87,0,0,1,707.84,229.59Z"></path><polygon class="cls-1" points="485.32 241.37 485.84 241.37 486.77 241.37 487.29 241.37 487.29 223.74 485.32 223.74 485.32 241.37"></polygon><path class="cls-1" d="M458.7,223.74h-6.48v17.63h6.48a8.82,8.82,0,1,0,0-17.63Zm0,15.66h-4.51V225.71h4.51a6.85,6.85,0,1,1,0,13.69Z"></path><path class="cls-1" d="M515.71,232.33a14.61,14.61,0,0,0-3.74-1,9,9,0,0,1-3.31-1,3.09,3.09,0,0,1-1-.86,1.88,1.88,0,0,1-.32-1.08,2.52,2.52,0,0,1,1.24-2.13,6,6,0,0,1,3.27-.86,5.74,5.74,0,0,1,3.26.93,2.57,2.57,0,0,1,1.24,2.06v.51h2v-.51a4.47,4.47,0,0,0-2-3.56,7.58,7.58,0,0,0-4.52-1.41,7.78,7.78,0,0,0-4.52,1.31,4.43,4.43,0,0,0-2,3.66,3.79,3.79,0,0,0,.54,2,5.29,5.29,0,0,0,2.4,2,13.58,13.58,0,0,0,3.46,1,10.56,10.56,0,0,1,3.69,1.15,3.32,3.32,0,0,1,1,.93,2.07,2.07,0,0,1,.34,1.17,2.74,2.74,0,0,1-1.37,2.3,6.54,6.54,0,0,1-3.6.94,6.31,6.31,0,0,1-3.6-1,2.79,2.79,0,0,1-1.38-2.23V236h-2v.52a4.68,4.68,0,0,0,2.09,3.74,8.24,8.24,0,0,0,4.86,1.48,8.4,8.4,0,0,0,4.84-1.39,4.62,4.62,0,0,0,2.1-3.83,3.85,3.85,0,0,0-.58-2.12A5.57,5.57,0,0,0,515.71,232.33Z"></path><path class="cls-1" d="M545.4,223.74h-7.81v17.63h2v-6h5.84a5.88,5.88,0,0,0,4.14-1.7,5.78,5.78,0,0,0,1.71-4.12A5.84,5.84,0,0,0,545.4,223.74Zm0,9.7h-5.84v-7.73h5.84a3.87,3.87,0,1,1,0,7.73Z"></path><polygon class="cls-1" points="568.72 224.26 568.72 241.37 581.22 241.37 581.22 239.4 570.7 239.4 570.7 233.54 580.51 233.54 580.51 231.57 570.7 231.57 570.7 225.71 581.22 225.71 581.22 223.74 568.72 223.74 568.72 224.26"></polygon><path class="cls-1" d="M503.91,52.1A55.46,55.46,0,0,1,543,68.05l2.12,2.08,9.2-9.19-2.16-2.12h0A68.5,68.5,0,0,0,503.93,39h-.1a68.63,68.63,0,1,0,48.35,117.46h0l2.15-2.12-2.14-2.14-7.06-7L543,147.26A55.6,55.6,0,1,1,503.91,52.1Z"></path><path class="cls-1" d="M719.71,41.86h-48.1V173.45h48.1a65.8,65.8,0,1,0,0-131.59Zm0,118.52h-35V54.93h35a52.73,52.73,0,1,1,0,105.45Z"></path><path class="cls-1" d="M647.05,105.22A35.77,35.77,0,0,0,659.4,78.11a36.21,36.21,0,0,0-36.26-36.25H557.87V173.45h72.52A36.25,36.25,0,0,0,656,162.94a36.06,36.06,0,0,0,4.29-46A36.76,36.76,0,0,0,647.05,105.22ZM623.14,54.93a23.11,23.11,0,0,1,23.18,23.18,22.79,22.79,0,0,1-6.76,16.31,23.24,23.24,0,0,1-16.42,6.7H571V54.93Zm7.25,105.45H571V114.19h59.44a23.11,23.11,0,0,1,23.18,23.18,22.79,22.79,0,0,1-6.76,16.31A23.24,23.24,0,0,1,630.39,160.38Z"></path></svg> 